<svg xmlns="http://www.w3.org/2000/svg" viewBox="0 0 22.67 22.47"><defs><style>.a{fill:#fff;}</style></defs><title>edit</title><path class="a" d="M80.16,131l-.8-.34a1.39,1.39,0,0,1-.34-2.35l.67-.56a1.39,1.39,0,0,0-1.12-2.45l-.86.14a1.39,1.39,0,0,1-1.56-1.8l.26-.83a1.39,1.39,0,0,0-2.26-1.45l-.64.58a1.39,1.39,0,0,1-2.28-.67l-.23-.84a1.39,1.39,0,0,0-2.69,0l-.23.84a1.39,1.39,0,0,1-2.28.67l-.64-.58a1.39,1.39,0,0,0-2.26,1.45l.26.83a1.39,1.39,0,0,1-1.56,1.8l-.86-.14a1.39,1.39,0,0,0-1.12,2.45l.67.56a1.39,1.39,0,0,1-.34,2.35l-.8.34a1.39,1.39,0,0,0,.38,2.66l.86.11a1.39,1.39,0,0,1,1,2.16l-.49.72a1.39,1.39,0,0,0,1.76,2l.78-.38a1.39,1.39,0,0,1,2,1.28l0,.87a1.39,1.39,0,0,0,2.58.76l.45-.74a1.39,1.39,0,0,1,2.38,0l.45.74a1.39,1.39,0,0,0,2.58-.76l0-.87a1.39,1.39,0,0,1,2-1.28l.78.38a1.39,1.39,0,0,0,1.76-2l-.49-.72a1.39,1.39,0,0,1,1-2.16l.86-.11A1.39,1.39,0,0,0,80.16,131Zm-10.49,3.8a4.15,4.15,0,1,1,4.15-4.15A4.15,4.15,0,0,1,69.66,134.82Z" transform="translate(-58.33 -119.43)"/></svg>