<svg xmlns="http://www.w3.org/2000/svg" viewBox="0 0 247 200"><defs><style>.a{fill:#fff;}.b{fill:#2c2c2d;}.c{fill:#282828;}.d{fill:none;stroke:#282828;stroke-linecap:round;stroke-miterlimit:10;stroke-width:3px;}.e{fill:#d8d8d8;}</style></defs><title>PHOQUING</title><path class="a" d="M474,325.5c0,68.21,49.79,76.5,118,76.5s129-8.29,129-76.5a123.5,123.5,0,0,0-247,0Z" transform="translate(-474 -202)"/><circle class="b" cx="83.5" cy="65.5" r="16.5"/><path class="c" d="M579.54,305.91c0,4.15,6,7.94,15.28,10.81a7.75,7.75,0,0,0,4.27.09c8.25-2.2,15.42-6.39,15.46-10.49.05-4.45-7.77-6.4-17.44-6.52S579.6,301.46,579.54,305.91Z" transform="translate(-474 -202)"/><circle class="a" cx="88" cy="62" r="9"/><circle class="b" cx="161.5" cy="65.5" r="16.5"/><circle class="a" cx="166" cy="62" r="9"/><path class="d" d="M596.35,316.78s2.16,32.73-30.77,23.26c-11.39-3.77-10.7-8.3-10.7-8.3" transform="translate(-474 -202)"/><path class="d" d="M597.74,316.8s-2.92,32.67,30.22,24c11.48-3.5,10.9-8,10.9-8" transform="translate(-474 -202)"/><path class="e" d="M617,376s-21,4-39,0c14,10,15,12,20,12S607,384,617,376Z" transform="translate(-474 -202)"/></svg>